<svg width="46" height="44" viewBox="0 0 46 44" fill="none" xmlns="http://www.w3.org/2000/svg">
<path d="M23 27.4476C23 27.8667 23.1826 28.1635 23.5478 28.3381C23.9144 28.5127 24.272 28.4952 24.6205 28.2857L33.0886 22.8905C33.4023 22.681 33.5591 22.3841 33.5591 22C33.5591 21.6159 33.4023 21.319 33.0886 21.1095L24.6205 15.7143C24.272 15.5048 23.9144 15.4873 23.5478 15.6619C23.1826 15.8365 23 16.1333 23 16.5524V27.4476ZM4.18182 44C3.03182 44 2.0477 43.59 1.22945 42.7701C0.409818 41.9488 0 40.9619 0 39.8095V18.8571C0 18.2635 0.200727 17.7655 0.602182 17.3632C1.00224 16.9623 1.49848 16.7619 2.09091 16.7619C2.68333 16.7619 3.18027 16.9623 3.58173 17.3632C3.98179 17.7655 4.18182 18.2635 4.18182 18.8571V39.8095H37.6364C38.2288 39.8095 38.725 40.0107 39.1251 40.413C39.5265 40.8138 39.7273 41.3111 39.7273 41.9048C39.7273 42.4984 39.5265 42.9957 39.1251 43.3966C38.725 43.7989 38.2288 44 37.6364 44H4.18182ZM12.5455 35.619C11.3955 35.619 10.4113 35.2091 9.59309 34.3891C8.77345 33.5678 8.36364 32.581 8.36364 31.4286V12.5714C8.36364 11.419 8.77345 10.4329 9.59309 9.61295C10.4113 8.79162 11.3955 8.38095 12.5455 8.38095H18.8182V4.19048C18.8182 3.0381 19.228 2.05124 20.0476 1.2299C20.8659 0.409968 21.85 0 23 0H31.3636C32.5136 0 33.4985 0.409968 34.3181 1.2299C35.1363 2.05124 35.5455 3.0381 35.5455 4.19048V8.38095H41.8182C42.9682 8.38095 43.953 8.79162 44.7726 9.61295C45.5909 10.4329 46 11.419 46 12.5714V31.4286C46 32.581 45.5909 33.5678 44.7726 34.3891C43.953 35.2091 42.9682 35.619 41.8182 35.619H12.5455ZM23 8.38095H31.3636V4.19048H23V8.38095Z" fill="#7266FF"/>
</svg>
